<?xml version="1.0" encoding="UTF-8"?>
<!DOCTYPE svg PUBLIC "-//W3C//DTD SVG 1.1//EN" "http://www.w3.org/Graphics/SVG/1.1/DTD/svg11.dtd">
<!-- Creator: CorelDRAW X8 -->
<svg xmlns="http://www.w3.org/2000/svg" xml:space="preserve" width="169.333mm" height="169.333mm" version="1.1" style="shape-rendering:geometricPrecision; text-rendering:geometricPrecision; image-rendering:optimizeQuality; fill-rule:evenodd; clip-rule:evenodd"
viewBox="0 0 16933 16933"
 xmlns:xlink="http://www.w3.org/1999/xlink">
 <defs>
  <style type="text/css">
   <![CDATA[
    .str0 {stroke:#4F4B4C;stroke-width:25.47}
    .fil5 {fill:none;fill-rule:nonzero}
    .fil17 {fill:#212121}
    .fil18 {fill:#616161}
    .fil15 {fill:#BDBDBD}
    .fil19 {fill:#E0E0E0}
    .fil16 {fill:#EEEEEE}
    .fil20 {fill:whitesmoke}
    .fil14 {fill:#FEFEFE;fill-rule:nonzero}
    .fil13 {fill:#FFF6DE;fill-rule:nonzero}
    .fil9 {fill:#5F5E5A;fill-rule:nonzero}
    .fil4 {fill:#4F4B4C;fill-rule:nonzero}
    .fil0 {fill:#424242;fill-rule:nonzero}
    .fil11 {fill:#9E9E9E;fill-rule:nonzero}
    .fil2 {fill:#E0E0E0;fill-rule:nonzero}
    .fil12 {fill:#F48FB1;fill-rule:nonzero}
    .fil1 {fill:whitesmoke;fill-rule:nonzero}
    .fil6 {fill:#F9A825;fill-rule:nonzero}
    .fil3 {fill:#FAFAFA;fill-rule:nonzero}
    .fil8 {fill:#FBC02D;fill-rule:nonzero}
    .fil7 {fill:#FFF176;fill-rule:nonzero}
    .fil10 {fill:#FFF59D;fill-rule:nonzero}
   ]]>
  </style>
 </defs>
 <g id="Слой_x0020_1">
  <metadata id="CorelCorpID_0Corel-Layer"/>
  <g id="_2300579051008">
   <path class="fil0" d="M13086 14951c0,406 -329,735 -735,735l-9976 0c-406,0 -735,-329 -735,-735l0 -12180c0,-406 329,-735 735,-735l9976 0c406,0 735,329 735,735l0 12180z"/>
   <polygon class="fil1" points="12189,14905 12395,14905 12395,2826 12189,2826 "/>
   <polygon class="fil2" points="12395,14835 12602,14835 12602,2941 12395,2941 "/>
   <polygon class="fil3" points="2071,14953 12188,14953 12188,2712 2071,2712 "/>
   <path class="fil4" d="M2885 3607c0,136 -109,245 -245,245 -135,0 -245,-109 -245,-245 0,-135 110,-245 245,-245 136,0 245,110 245,245z"/>
   <path class="fil4" d="M2885 5316c0,135 -109,245 -245,245 -135,0 -245,-110 -245,-245 0,-136 110,-245 245,-245 136,0 245,109 245,245z"/>
   <path class="fil4" d="M2885 7024c0,135 -109,245 -245,245 -135,0 -245,-110 -245,-245 0,-135 110,-245 245,-245 136,0 245,110 245,245z"/>
   <path class="fil4" d="M2885 8732c0,135 -109,245 -245,245 -135,0 -245,-110 -245,-245 0,-135 110,-245 245,-245 136,0 245,110 245,245z"/>
   <path class="fil4" d="M2885 10441c0,135 -109,244 -245,244 -135,0 -245,-109 -245,-244 0,-136 110,-245 245,-245 136,0 245,109 245,245z"/>
   <path class="fil4" d="M2885 12149c0,135 -109,245 -245,245 -135,0 -245,-110 -245,-245 0,-135 110,-245 245,-245 136,0 245,110 245,245z"/>
   <path class="fil4" d="M2885 13857c0,135 -109,245 -245,245 -135,0 -245,-110 -245,-245 0,-135 110,-245 245,-245 136,0 245,110 245,245z"/>
   <polygon class="fil5 str0" points="10935,3839 11642,3839 11642,3133 10935,3133 "/>
   <polygon class="fil5 str0" points="10022,3839 10729,3839 10729,3133 10022,3133 "/>
   <polygon class="fil5 str0" points="9109,3839 9815,3839 9815,3133 9109,3133 "/>
   <line class="fil5" x1="8834" y1="3486" x2="3389" y2= "3486" />
   <path class="fil4" d="M8834 3500l-5445 0c-8,0 -14,-6 -14,-14 0,-8 6,-14 14,-14l5445 0c8,0 15,6 15,14 0,8 -7,14 -15,14z"/>
   <path class="fil6" d="M2591 3763l-1131 0c-86,0 -155,-70 -155,-156 0,-86 69,-155 155,-155l1131 0c86,0 155,69 155,155 0,86 -69,156 -155,156z"/>
   <path class="fil6" d="M2591 5468l-1131 0c-86,0 -155,-70 -155,-156 0,-85 69,-155 155,-155l1131 0c86,0 155,70 155,155 0,86 -69,156 -155,156z"/>
   <path class="fil6" d="M2591 7178l-1131 0c-86,0 -155,-70 -155,-156 0,-86 69,-155 155,-155l1131 0c86,0 155,69 155,155 0,86 -69,156 -155,156z"/>
   <path class="fil6" d="M2591 8888l-1131 0c-86,0 -155,-70 -155,-156 0,-86 69,-155 155,-155l1131 0c86,0 155,69 155,155 0,86 -69,156 -155,156z"/>
   <path class="fil6" d="M2591 10598l-1131 0c-86,0 -155,-70 -155,-156 0,-86 69,-155 155,-155l1131 0c86,0 155,69 155,155 0,86 -69,156 -155,156z"/>
   <path class="fil6" d="M2591 12322l-1131 0c-86,0 -155,-70 -155,-156 0,-86 69,-155 155,-155l1131 0c86,0 155,69 155,155 0,86 -69,156 -155,156z"/>
   <path class="fil6" d="M2591 14010l-1131 0c-86,0 -155,-69 -155,-155 0,-86 69,-156 155,-156l1131 0c86,0 155,70 155,156 0,86 -69,155 -155,155z"/>
   <polygon class="fil7" points="11020,15878 13811,7474 13457,7356 10665,15760 "/>
   <polygon class="fil8" points="10153,15590 10665,15760 13457,7356 12944,7186 "/>
   <polygon class="fil9" points="10237,16806 10507,16486 10215,16389 "/>
   <polygon class="fil10" points="10173,15597 10215,16389 10507,16486 11020,15878 "/>
   <polygon class="fil11" points="12996,7032 13862,7319 13807,7487 12940,7199 "/>
   <polygon class="fil12" points="13173,6496 14040,6784 13859,7329 12992,7041 "/>
   <path class="fil13" d="M2408 2006c0,0 -1,-1 -2,-2 1,4 2,4 2,2z"/>
   <path class="fil6" d="M13470 512l-814 794c-111,108 -113,285 -5,396l177 182c-108,-111 -105,-288 5,-396l815 -794c111,-108 288,-106 396,5l-177 -182c-108,-111 -286,-113 -397,-5z"/>
   <path class="fil8" d="M13648 694l-815 794c-110,108 -113,285 -5,396l1209 1241 1216 -1185 -1209 -1241c-108,-111 -285,-113 -396,-5z"/>
   <path class="fil11" d="M14037 3125l1059 1086c108,111 285,113 396,5l815 -793c111,-108 113,-286 5,-397l-1059 -1086 -1216 1185z"/>
   <path class="fil14" d="M13541 566l-834 813c-83,80 -110,196 -80,298l49 51c-60,-104 -43,-241 49,-331l834 -813c91,-89 229,-102 331,-40l-49 -50c-101,-32 -218,-8 -300,72z"/>
   <rect class="fil15" transform="matrix(0.331625 -0.0224755 0.0223928 0.330405 4160.17 4287.28)" width="16053" height="31524" rx="1839" ry="1839"/>
   <rect class="fil15" transform="matrix(0.330405 -0.0223928 0.0223928 0.330405 9619.8 6308.08)" width="179" height="2765"/>
   <rect class="fil15" transform="matrix(0.330405 -0.0223928 0.0223928 0.330405 4233.27 5886.27)" width="191" height="5178"/>
   <rect class="fil16" transform="matrix(0.324992 -0.022026 0.0221506 0.326831 4217.63 4345.95)" width="16053" height="31524" rx="1839" ry="1839"/>
   <rect class="fil17" transform="matrix(0.33192 -0.0224955 0.0223928 0.330405 4449.01 5190.22)" width="14766" height="25976" rx="169" ry="169"/>
   <circle class="fil18" transform="matrix(0.330405 -0.0223928 0.0223928 0.330405 7650.56 4287.54)" r="356"/>
   <circle class="fil18" transform="matrix(0.330405 -0.0223928 0.0223928 0.330405 7914.22 4269.67)" r="356"/>
   <circle class="fil18" transform="matrix(0.330405 -0.0223928 0.0223928 0.330405 5958.82 4402.2)" r="356"/>
   <rect class="fil19" transform="matrix(0.330405 -0.0223928 0.0223928 0.330405 6215.29 4381.99)" width="3742" height="322" rx="356" ry="356"/>
   <rect class="fil19" transform="matrix(0.330405 -0.0223928 0.0223928 0.330405 6789.64 13934.5)" width="3962" height="1211" rx="423" ry="423"/>
   <rect class="fil20" transform="matrix(0.327101 -0.0221689 0.0217665 0.321164 6796.66 13941.1)" width="3962" height="1211" rx="423" ry="423"/>
   <circle class="fil18" transform="matrix(0.330405 -0.0223928 0.0223928 0.330405 8571.76 4317.83)" r="339"/>
   <circle id="Эллипс_x0020_" class="fil15" transform="matrix(0.181722 -0.012316 0.012316 0.181722 8571.76 4317.83)" r="339"/>
   <circle id="Эллипс_x0020__0" class="fil18" transform="matrix(0.0330399 -0.00223924 0.00223924 0.0330399 8571.76 4317.83)" r="339"/>
  </g>
 </g>
</svg>
