<?xml version="1.0" encoding="UTF-8"?>
<!DOCTYPE svg PUBLIC "-//W3C//DTD SVG 1.1//EN" "http://www.w3.org/Graphics/SVG/1.1/DTD/svg11.dtd">
<!-- Creator: CorelDRAW X8 -->
<svg xmlns="http://www.w3.org/2000/svg" xml:space="preserve" width="169.333mm" height="169.333mm" version="1.1" style="shape-rendering:geometricPrecision; text-rendering:geometricPrecision; image-rendering:optimizeQuality; fill-rule:evenodd; clip-rule:evenodd"
viewBox="0 0 16933 16933"
 xmlns:xlink="http://www.w3.org/1999/xlink">
 <defs>
  <style type="text/css">
   <![CDATA[
    .fil3 {fill:#FEFEFE}
    .fil4 {fill:#727271}
    .fil1 {fill:#434242}
    .fil2 {fill:#7E57C2}
    .fil5 {fill:#9575CD}
    .fil0 {fill:#FEFEFE;fill-opacity:0.501961}
   ]]>
  </style>
 </defs>
 <g id="Слой_x0020_1">
  <metadata id="CorelCorpID_0Corel-Layer"/>
  <path class="fil0" d="M8563 1032c4158,0 7528,3370 7528,7527 0,4158 -3370,7528 -7528,7528 -4157,0 -7527,-3370 -7527,-7528 0,-4157 3370,-7527 7527,-7527z"/>
  <g id="_2991856481792">
   <path class="fil1" d="M8534 8884c39,455 -214,325 -315,257 -68,-97 -212,-362 252,-322l1101 -1101c0,0 -1182,292 -1797,-64 0,0 -235,817 -825,1408l654 655 -1 0 688 688c591,-590 1409,-825 1409,-825 -357,-615 -65,-1797 -65,-1797l-1101 1101z"/>
   <polygon class="fil2" points="10452,5645 12372,5646 12372,5646 10452,3768 "/>
   <path class="fil3" d="M10462 5646l-10 -1878 -5137 1 0 9582 7057 0 0 -7705 -1910 0zm-3512 3416c590,-591 825,-1408 825,-1408 615,356 1797,64 1797,64l-1101 1101c-464,-40 -320,225 -252,322 101,68 354,198 315,-257l1101 -1101c0,0 -292,1182 65,1797 0,0 -818,235 -1409,825l-688 -688 1 0 -654 -655z"/>
   <polygon class="fil4" points="8454,5278 8019,5713 8454,6148 8635,5967 9810,7142 9638,7314 10073,7749 10241,7581 11420,8761 11237,8944 11672,9379 12107,8944 11672,8509 11528,8654 10348,7474 10508,7314 10073,6879 9907,7045 8748,5854 8889,5713 "/>
   <path class="fil4" d="M8375 6521c1326,0 2401,1075 2401,2401 0,1326 -1075,2401 -2401,2401 -1327,0 -2402,-1075 -2402,-2401 0,-1326 1075,-2401 2402,-2401zm0 101c1270,0 2300,1030 2300,2300 0,1271 -1030,2300 -2300,2300 -1271,0 -2301,-1029 -2301,-2300 0,-1270 1030,-2300 2301,-2300z"/>
   <path class="fil4" d="M6713 6844l-435 435 435 435c554,-555 -101,101 435,-435l-435 -435z"/>
   <path class="fil3" d="M6713 6935l-344 344 344 344c438,-439 -80,80 344,-344l-344 -344z"/>
   <path class="fil4" d="M10051 10095l-435 435 435 435c554,-555 -101,101 435,-435l-435 -435z"/>
   <path class="fil3" d="M10051 10186l-344 344 344 343c438,-438 -80,81 344,-343l-344 -344z"/>
   <circle class="fil2" cx="5699" cy="11665" r="945"/>
   <rect class="fil5" transform="matrix(2.9807 2.9837 -2.9837 2.9807 7021.54 8997.89)" width="449" height="686"/>
  </g>
 </g>
</svg>
