<?xml version="1.0" encoding="UTF-8"?>
<!DOCTYPE svg PUBLIC "-//W3C//DTD SVG 1.1//EN" "http://www.w3.org/Graphics/SVG/1.1/DTD/svg11.dtd">
<!-- Creator: CorelDRAW X8 -->
<svg xmlns="http://www.w3.org/2000/svg" xml:space="preserve" width="169.333mm" height="169.333mm" version="1.1" style="shape-rendering:geometricPrecision; text-rendering:geometricPrecision; image-rendering:optimizeQuality; fill-rule:evenodd; clip-rule:evenodd"
viewBox="0 0 16933 16933"
 xmlns:xlink="http://www.w3.org/1999/xlink">
 <defs>
  <style type="text/css">
   <![CDATA[
    .str0 {stroke:#2B2A29;stroke-width:20}
    .fil21 {fill:none}
    .fil1 {fill:#FEFEFE}
    .fil24 {fill:#B2B3B3}
    .fil23 {fill:#9D9E9E}
    .fil2 {fill:#898989}
    .fil22 {fill:#5B5B5B}
    .fil20 {fill:#434242}
    .fil19 {fill:#303F9F}
    .fil18 {fill:#3949AB}
    .fil17 {fill:#3F51B5}
    .fil13 {fill:#512DA8}
    .fil16 {fill:#5C6BC0}
    .fil12 {fill:#5E35B1}
    .fil11 {fill:#673AB7}
    .fil15 {fill:#7986CB}
    .fil10 {fill:#7E57C2}
    .fil7 {fill:#8E24AA}
    .fil9 {fill:#9575CD}
    .fil6 {fill:#9C27B0}
    .fil14 {fill:#9FA8DA}
    .fil5 {fill:#AB47BC}
    .fil8 {fill:#B39DDB}
    .fil4 {fill:#BA68C8}
    .fil3 {fill:#CE93D8}
    .fil0 {fill:#FEFEFE;fill-opacity:0.501961}
   ]]>
  </style>
 </defs>
 <g id="Слой_x0020_1">
  <metadata id="CorelCorpID_0Corel-Layer"/>
  <g id="_2991856853024">
   <path class="fil0" d="M7714 1710c3857,0 6984,3128 6984,6985 0,3858 -3127,6985 -6984,6985 -3858,0 -6985,-3127 -6985,-6985 0,-3857 3127,-6985 6985,-6985z"/>
   <g>
    <g id="Purple">
     <path class="fil1" d="M3854 4614l9083 2697 -600 2018 -9083 -2697c-531,-158 -836,-721 -678,-1252l26 -88c157,-531 721,-836 1252,-678z"/>
     <circle class="fil2" transform="matrix(5.1825 1.539 -1.539 5.1825 3444.96 5590.57)" r="47"/>
     <rect class="fil3" transform="matrix(5.1825 1.539 -1.539 5.1825 11375.9 6979.48)" width="271" height="343"/>
     <rect class="fil4" transform="matrix(5.1825 1.539 -1.539 5.1825 9971.29 6562.35)" width="271" height="343"/>
     <rect class="fil5" transform="matrix(5.1825 1.539 -1.539 5.1825 8599.63 6155.03)" width="271" height="343"/>
     <rect class="fil5" transform="matrix(5.1825 1.539 -1.539 5.1825 7194.97 5737.9)" width="271" height="343"/>
     <rect class="fil6" transform="matrix(5.1825 1.539 -1.539 5.1825 5826.17 5331.42)" width="271" height="343"/>
     <rect class="fil7" transform="matrix(5.1825 1.539 -1.539 5.1825 4467.79 4928.03)" width="271" height="343"/>
    </g>
    <g id="Deep_x0020_purple">
     <path class="fil1" d="M4037 4729l8271 4623 -1027 1838 -8271 -4623c-483,-270 -658,-887 -388,-1370l45 -80c270,-483 887,-658 1370,-388z"/>
     <circle class="fil2" transform="matrix(4.71912 2.63756 -2.63756 4.71912 3424.41 5592.74)" r="47"/>
     <rect class="fil8" transform="matrix(4.71912 2.63756 -2.63756 4.71912 10858.1 8686.32)" width="271" height="343"/>
     <rect class="fil9" transform="matrix(4.71912 2.63756 -2.63756 4.71912 9579.01 7971.44)" width="271" height="343"/>
     <rect class="fil10" transform="matrix(4.71912 2.63756 -2.63756 4.71912 8330 7273.36)" width="271" height="343"/>
     <rect class="fil11" transform="matrix(4.71912 2.63756 -2.63756 4.71912 7050.93 6558.47)" width="271" height="343"/>
     <rect class="fil12" transform="matrix(4.71912 2.63756 -2.63756 4.71912 5804.52 5861.84)" width="271" height="343"/>
     <rect class="fil13" transform="matrix(4.71912 2.63756 -2.63756 4.71912 4567.59 5170.51)" width="271" height="343"/>
    </g>
    <g id="Indigo">
     <path class="fil1" d="M4238 4866l6987 6400 -1422 1553 -6987 -6400c-408,-374 -436,-1014 -62,-1423l62 -67c374,-409 1014,-437 1422,-63z"/>
     <circle class="fil2" transform="matrix(3.98668 3.65146 -3.65146 3.98668 3443.37 5565.79)" r="47"/>
     <rect class="fil14" transform="matrix(3.98668 3.65146 -3.65146 3.98668 9967.14 10284.9)" width="271" height="343"/>
     <rect class="fil15" transform="matrix(3.98668 3.65146 -3.65146 3.98668 8886.59 9295.21)" width="271" height="343"/>
     <rect class="fil16" transform="matrix(3.98668 3.65146 -3.65146 3.98668 7831.44 8328.78)" width="271" height="343"/>
     <rect class="fil17" transform="matrix(3.98668 3.65146 -3.65146 3.98668 6750.89 7339.09)" width="271" height="343"/>
     <rect class="fil18" transform="matrix(3.98668 3.65146 -3.65146 3.98668 5697.93 6374.66)" width="271" height="343"/>
     <rect class="fil19" transform="matrix(3.98668 3.65146 -3.65146 3.98668 4652.98 5417.58)" width="271" height="343"/>
    </g>
   </g>
   <circle class="fil20" cx="7712" cy="4226" r="391"/>
   <line class="fil21 str0" x1="7585" y1="13257" x2="7835" y2= "13257" />
   <line class="fil21" x1="7253" y1="4914" x2="8174" y2= "4914" />
   <line class="fil21" x1="7560" y1="11195" x2="7867" y2= "11195" />
   <path class="fil20" d="M7714 10359c84,0 153,70 153,154l0 682 0 240c0,84 -69,153 -153,153 -85,0 -154,-69 -154,-153l0 -240 0 -682c0,-84 69,-154 154,-154zm460 -5445l-921 0 0 7603 921 0 0 -7603z"/>
   <polygon class="fil22" points="7253,4914 8174,4914 8174,4180 7998,4180 7415,4180 7253,4180 "/>
   <path class="fil22" d="M7867 11195l-307 0 0 240c0,84 69,153 154,153 84,0 153,-69 153,-153l0 -240z"/>
   <path class="fil23" d="M7560 11195l307 0 0 -682c0,-84 -69,-154 -153,-154 -85,0 -154,70 -154,154l0 682z"/>
   <polygon class="fil24" points="7585,13269 7714,13556 8174,12530 7253,12530 "/>
   <polygon class="fil20" points="7884,13165 7544,13165 7585,13257 7714,13543 "/>
  </g>
 </g>
</svg>
