<?xml version="1.0" encoding="UTF-8"?>
<!DOCTYPE svg PUBLIC "-//W3C//DTD SVG 1.1//EN" "http://www.w3.org/Graphics/SVG/1.1/DTD/svg11.dtd">
<!-- Creator: CorelDRAW X8 -->
<svg xmlns="http://www.w3.org/2000/svg" xml:space="preserve" width="68px" height="68px" version="1.1" style="shape-rendering:geometricPrecision; text-rendering:geometricPrecision; image-rendering:optimizeQuality; fill-rule:evenodd; clip-rule:evenodd"
viewBox="0 0 68 68"
 xmlns:xlink="http://www.w3.org/1999/xlink">
 <defs>
  <style type="text/css">
   <![CDATA[
    .fil1 {fill:none}
    .fil0 {fill:#E91E63}
   ]]>
  </style>
 </defs>
 <g id="Слой_x0020_1">
  <metadata id="CorelCorpID_0Corel-Layer"/>
  <path class="fil0" d="M24 33c-3,0 -4,2 -4,4 0,3 1,5 4,5 2,0 4,-2 4,-5 0,-2 -2,-4 -4,-4zm20 0c-2,0 -4,2 -4,4 0,3 2,5 4,5 3,0 4,-2 4,-5 0,-2 -1,-4 -4,-4zm-10 -33c-19,0 -34,15 -34,34 0,19 15,34 34,34 19,0 34,-15 34,-34 0,-19 -15,-34 -34,-34zm0 61c-15,0 -27,-12 -27,-27 0,-1 0,-2 0,-3 8,-3 14,-10 18,-18 6,9 16,14 27,14 3,0 6,0 8,-1 1,3 1,5 1,8 0,15 -12,27 -27,27z"/>
  <polygon class="fil1" points="0,0 68,0 68,68 0,68 "/>
 </g>
</svg>
