<?xml version="1.0" encoding="UTF-8"?>
<!DOCTYPE svg PUBLIC "-//W3C//DTD SVG 1.1//EN" "http://www.w3.org/Graphics/SVG/1.1/DTD/svg11.dtd">
<!-- Creator: CorelDRAW X8 -->
<svg xmlns="http://www.w3.org/2000/svg" xml:space="preserve" width="48px" height="63px" version="1.1" style="shape-rendering:geometricPrecision; text-rendering:geometricPrecision; image-rendering:optimizeQuality; fill-rule:evenodd; clip-rule:evenodd"
viewBox="0 0 48 63"
 xmlns:xlink="http://www.w3.org/1999/xlink">
 <defs>
  <style type="text/css">
   <![CDATA[
    .fil0 {fill:#BDBDBD}
   ]]>
  </style>
 </defs>
 <g id="Слой_x0020_1">
  <metadata id="CorelCorpID_0Corel-Layer"/>
  <path class="fil0" d="M42 21l-3 0 0 -6c0,-8 -7,-15 -15,-15 -8,0 -15,7 -15,15l0 6 -3 0c-3,0 -6,3 -6,6l0 30c0,3 3,6 6,6l36 0c3,0 6,-3 6,-6l0 -30c0,-3 -3,-6 -6,-6l0 0zm-18 27c-3,0 -6,-3 -6,-6 0,-3 3,-6 6,-6 3,0 6,3 6,6 0,3 -3,6 -6,6zm9 -27l-18 0 0 -6c0,-5 4,-9 9,-9 5,0 9,4 9,9l0 6z"/>
 </g>
</svg>
