<?xml version="1.0" encoding="UTF-8"?>
<!DOCTYPE svg PUBLIC "-//W3C//DTD SVG 1.1//EN" "http://www.w3.org/Graphics/SVG/1.1/DTD/svg11.dtd">
<!-- Creator: CorelDRAW X8 -->
<svg xmlns="http://www.w3.org/2000/svg" xml:space="preserve" width="169.333mm" height="169.333mm" version="1.1" style="shape-rendering:geometricPrecision; text-rendering:geometricPrecision; image-rendering:optimizeQuality; fill-rule:evenodd; clip-rule:evenodd"
viewBox="0 0 16933 16933"
 xmlns:xlink="http://www.w3.org/1999/xlink">
 <defs>
  <style type="text/css">
   <![CDATA[
    .fil0 {fill:#FEFEFE;fill-opacity:0.501961}
    .fil1 {fill:#FEFEFE;fill-opacity:0.749020}
   ]]>
  </style>
 </defs>
 <g id="Слой_x0020_1">
  <metadata id="CorelCorpID_0Corel-Layer"/>
  <path class="fil0" d="M8974 10333l-180 -733c-251,-12 -501,-14 -751,-5l-192 759 -16 63c386,-46 771,-59 1150,-37l-11 -47z"/>
  <path class="fil1" d="M14773 8491c0,3511 -2846,6358 -6357,6358 -1454,0 -2793,-489 -3864,-1309 1748,-2653 5322,-3042 7142,-2273 -2428,-1642 -5849,-887 -8318,1099 -826,-1072 -1318,-2416 -1318,-3875 0,-3511 2847,-6358 6358,-6358 3511,0 6357,2847 6357,6358zm-10223 5047l0 0 -18 -18 18 18zm3866 2970c4427,0 8017,-3589 8017,-8017 0,-4428 -3590,-8017 -8017,-8017 -4428,0 -8017,3589 -8017,8017 0,4428 3589,8017 8017,8017z"/>
  <path class="fil1" d="M7260 9652c1042,-116 2084,-79 3127,178 137,38 275,80 412,126 2,1 4,2 5,2l1 -2 -3 -6 -2259 -3912 -122 -211 -3 -6 -3 6 -147 254 -1045 1809 -723 1253 710 -616 1205 -1045 950 1647c-350,3 -666,32 -958,78 -925,147 -1608,473 -2362,746l-2 1c406,-135 811,-236 1217,-302z"/>
  <polygon class="fil1" points="5137,5582 5136,5580 5136,5580 5136,5580 5134,5582 5134,5582 5051,5665 4458,6254 4048,6662 4387,6498 4961,6221 4963,6221 5319,6751 5528,7063 5380,6503 5166,5696 5136,5583 "/>
  <polygon class="fil1" points="4044,7772 4045,7770 4044,7770 4044,7769 4042,7770 4042,7770 3943,7797 3237,7986 2748,8117 3076,8140 3633,8180 3634,8181 3673,8738 3697,9066 3828,8577 4017,7871 4044,7772 "/>
  <polygon class="fil1" points="5302,8499 5300,8499 5300,8499 5300,8499 5301,8501 5301,8501 5330,8584 5534,9176 5675,9586 5676,9305 5676,8826 5677,8825 6150,8758 6430,8718 6004,8635 5389,8516 5303,8499 "/>
 </g>
</svg>
