<?xml version="1.0" encoding="UTF-8"?>
<!DOCTYPE svg PUBLIC "-//W3C//DTD SVG 1.1//EN" "http://www.w3.org/Graphics/SVG/1.1/DTD/svg11.dtd">
<!-- Creator: CorelDRAW X8 -->
<svg xmlns="http://www.w3.org/2000/svg" xml:space="preserve" width="169.333mm" height="169.333mm" version="1.1" style="shape-rendering:geometricPrecision; text-rendering:geometricPrecision; image-rendering:optimizeQuality; fill-rule:evenodd; clip-rule:evenodd"
viewBox="0 0 21000 29700"
 xmlns:xlink="http://www.w3.org/1999/xlink">
 <defs>
  <style type="text/css">
   <![CDATA[
    .fil2 {fill:#FEFEFE}
    .fil1 {fill:#D9DADA}
    .fil3 {fill:#727271}
    .fil4 {fill:#C5C6C6}
    .fil5 {fill:white}
    .fil0 {fill:#FEFEFE;fill-opacity:0.501961}
   ]]>
  </style>
 </defs>
 <g id="Слой_x0020_1">
  <metadata id="CorelCorpID_0Corel-Layer"/>
  <path class="fil0" d="M10536 7784c3896,0 7055,3159 7055,7056 0,3896 -3159,7055 -7055,7055 -3897,0 -7056,-3159 -7056,-7055 0,-3897 3159,-7056 7056,-7056z"/>
  <g id="_2046446912832">
   <path class="fil1" d="M10533 18341c-610,0 -920,-38 -1110,-136 -209,-108 -255,-278 -313,-493 -18,-67 -39,-143 -67,-226 -19,-58 -39,-123 -59,-192 -84,-283 -188,-634 -433,-980 -290,-409 -490,-769 -630,-1132 -164,-425 -244,-854 -244,-1309 0,-737 298,-1429 838,-1950 539,-519 1255,-806 2018,-806 761,0 1478,287 2017,806 539,521 837,1213 837,1950 0,456 -80,884 -244,1309 -140,363 -340,723 -629,1132 -246,347 -350,697 -433,979 -21,69 -40,135 -60,193 -28,82 -48,159 -67,226 -58,215 -104,385 -312,493 -190,98 -501,136 -1109,136zm-104 -193l73 1c55,0 110,-1 161,-1l30 -1 -264 1zm104 -6838c-1469,0 -2663,1150 -2663,2563 0,803 251,1499 838,2330 263,372 377,755 460,1035 20,68 39,131 58,186 29,88 51,168 70,238 56,210 87,306 215,372 147,76 394,109 853,114l36 0 322 -1 36 -1c414,-10 667,-46 795,-112 128,-66 159,-162 215,-372 19,-70 41,-150 71,-238 18,-54 37,-118 57,-186 83,-280 197,-663 460,-1035 588,-831 838,-1527 838,-2330 0,-1413 -1194,-2563 -2662,-2563l1 0z"/>
  </g>
  <path class="fil2" d="M9511 18034c147,76 394,109 854,114l36 0 321 -1 36 -1c414,-10 667,-46 795,-112 128,-66 159,-162 215,-372 19,-70 41,-150 71,-238 18,-54 37,-118 57,-186 83,-280 197,-663 460,-1035 588,-831 838,-1527 838,-2330 0,-1413 -1194,-2563 -2662,-2563 -1468,0 -2662,1150 -2662,2563 0,803 251,1499 838,2330 263,372 377,755 460,1035 20,68 39,131 58,186 29,88 51,168 70,238 56,210 87,306 215,372l0 0z"/>
  <path class="fil3" d="M9013 17390l3032 0 0 1857c0,304 -249,553 -553,553l-1929 0c-303,0 -550,-248 -550,-550l0 -1860z"/>
  <path class="fil3" d="M10568 20315c-376,0 -564,-60 -711,-188 -89,-78 -144,-183 -171,-327l-122 0c-63,0 -114,-48 -114,-108 0,-60 51,-108 114,-108l2007 0c63,0 114,48 114,108 0,60 -51,108 -114,108l-122 0c-27,144 -82,249 -171,327 -147,128 -335,188 -710,188l0 0zm225 -477l-2 -1c0,0 -1,-1 -1,-1l1 1c1,1 1,1 2,1zm-10 -8l-1 -1c-1,-1 -1,-1 -2,-2l2 2c0,0 0,0 1,1zm-24 -21l-1 -1c0,0 1,1 1,1zm-3 -2l-1 -2c0,1 1,1 1,2zm-20 -18l-1 -1c1,1 1,1 1,1zm-15 -13l-1 -1c0,0 1,1 1,1zm-290 285l1 1c0,0 -1,-1 -1,-1zm2 2l2 2c0,0 0,1 1,1l1 1c0,0 -1,0 -1,-1l-1 -1c-1,-1 -1,-1 -2,-2zm24 26l2 2c-1,-1 -1,-1 -2,-2zm3 3l1 1c0,0 -1,-1 -1,-1zm9 9l1 2c0,0 1,1 1,1l-1 -1c0,-1 -1,-1 -1,-2zm4 4l1 2c-1,-1 -1,-1 -1,-2zm4 6l2 1c0,1 1,1 1,1l1 2c0,-1 0,-1 -1,-2l-1 -1c0,0 -1,-1 -2,-1zm6 5l1 1c0,1 1,1 1,2l-1 -2c0,0 -1,0 -1,-1z"/>
  <path class="fil4" d="M9211 17548l2636 0 0 1614c0,264 -216,480 -480,480l-1678 0c-263,0 -478,-215 -478,-478l0 -1616z"/>
  <path class="fil3" d="M10321 18426c-43,0 -79,-49 -79,-108 0,-60 36,-109 79,-109l1644 0c44,0 80,49 80,109 0,59 -36,108 -80,108l-1644 0z"/>
  <path class="fil3" d="M10321 18949c-43,0 -79,-49 -79,-108 0,-60 36,-108 79,-108l1644 0c44,0 80,48 80,108 0,59 -36,108 -80,108l-1644 0z"/>
  <path class="fil3" d="M10321 19399c-43,0 -79,-49 -79,-109 0,-59 36,-108 79,-108l1644 0c44,0 80,49 80,108 0,60 -36,109 -80,109l-1644 0z"/>
  <path class="fil3" d="M9172 18426c-44,0 -80,-49 -80,-108 0,-60 36,-109 80,-109l541 0c44,0 79,49 79,109 0,59 -35,108 -79,108l-541 0zm0 973c-44,0 -80,-49 -80,-109 0,-59 36,-108 80,-108l541 0c44,0 79,49 79,108 0,60 -35,109 -79,109l-541 0zm0 -450c-44,0 -80,-49 -80,-108 0,-60 36,-108 80,-108l541 0c44,0 79,48 79,108 0,59 -35,108 -79,108l-541 0z"/>
  <rect class="fil5" x="10474" y="9364" width="116" height="1018"/>
  <rect class="fil5" transform="matrix(1.61391 -0.587416 0.587416 1.61391 8907.21 9669.03)" width="67.74" height="592.67"/>
  <rect class="fil5" transform="matrix(1.31567 -1.10398 1.10398 1.31567 7539.29 10491.5)" width="67.74" height="592.67"/>
  <rect class="fil5" transform="matrix(0.858745 -1.48739 1.48739 0.858745 6535.16 11732.2)" width="67.74" height="592.67"/>
  <rect class="fil5" transform="matrix(0.298239 -1.6914 1.6914 0.298239 6015.94 13241.5)" width="67.74" height="592.67"/>
  <rect class="fil5" transform="matrix(-0.298239 -1.6914 1.6914 -0.298239 6044.25 14837.4)" width="67.74" height="592.67"/>
  <rect class="fil5" transform="matrix(-0.858745 -1.48739 1.48739 -0.858745 6616.67 16327.3)" width="67.74" height="592.67"/>
  <rect class="fil5" transform="matrix(-1.31567 -1.10398 1.10398 -1.31567 7664.15 17531.6)" width="67.74" height="592.67"/>
  <rect class="fil5" x="10481" y="9364" width="116" height="1018"/>
  <rect class="fil5" transform="matrix(-1.61391 -0.587416 -0.587416 1.61391 12163.5 9669.03)" width="67.74" height="592.67"/>
  <rect class="fil5" transform="matrix(-1.31567 -1.10398 -1.10398 1.31567 13531.4 10491.5)" width="67.74" height="592.67"/>
  <rect class="fil5" transform="matrix(-0.858745 -1.48739 -1.48739 0.858745 14535.6 11732.2)" width="67.74" height="592.67"/>
  <rect class="fil5" transform="matrix(-0.298239 -1.6914 -1.6914 0.298239 15054.9 13241.5)" width="67.74" height="592.67"/>
  <rect class="fil5" transform="matrix(0.298239 -1.6914 -1.6914 -0.298239 15026.6 14837.4)" width="67.74" height="592.67"/>
  <rect class="fil5" transform="matrix(0.858745 -1.48739 -1.48739 -0.858745 14454.1 16327.3)" width="67.74" height="592.67"/>
  <rect class="fil5" transform="matrix(1.31567 -1.10398 -1.10398 -1.31567 13406.6 17531.6)" width="67.74" height="592.67"/>
  <g id="_2991849856464">
   <path class="fil3" d="M10013 17393l-417 -2239 256 0c0,0 38,123 67,0l113 0c0,0 152,474 314,0l37 0c0,0 162,465 315,0l0 152c0,0 -114,360 -333,0 0,0 -162,341 -361,0 0,0 -57,-48 -85,38 -29,85 360,2049 360,2049l-266 0z"/>
   <path class="fil3" d="M11057 17393l418 -2239 -256 0c0,0 -38,123 -67,0l-114 0c0,0 -151,474 -313,0l-38 0c0,0 -161,465 -313,0l0 152c0,0 114,360 332,0 0,0 162,341 361,0 0,0 57,-48 85,38 29,85 -360,2049 -360,2049l265 0z"/>
  </g>
 </g>
</svg>
