<?xml version="1.0" encoding="UTF-8"?>
<!DOCTYPE svg PUBLIC "-//W3C//DTD SVG 1.1//EN" "http://www.w3.org/Graphics/SVG/1.1/DTD/svg11.dtd">
<!-- Creator: CorelDRAW X8 -->
<svg xmlns="http://www.w3.org/2000/svg" xml:space="preserve" width="210mm" height="297mm" version="1.1" style="shape-rendering:geometricPrecision; text-rendering:geometricPrecision; image-rendering:optimizeQuality; fill-rule:evenodd; clip-rule:evenodd"
viewBox="0 0 21000 29700"
 xmlns:xlink="http://www.w3.org/1999/xlink">
 <defs>
  <style type="text/css">
   <![CDATA[
    .fil2 {fill:#D81B60}
    .fil0 {fill:#E91E63}
    .fil1 {fill:#EC407A}
   ]]>
  </style>
 </defs>
 <g id="Слой_x0020_1">
  <metadata id="CorelCorpID_0Corel-Layer"/>
  <g>
   <path class="fil0" d="M10348 5969l305 0c1192,21 2379,280 3467,768 1407,627 2644,1629 3552,2873 590,805 1043,1711 1331,2666 238,785 363,1603 378,2422l0 304c-20,1153 -263,2303 -721,3362 -363,842 -858,1627 -1461,2318 -587,674 -1276,1260 -2037,1730 -856,529 -1804,911 -2788,1122 -565,122 -1143,185 -1722,197l-304 0c-1146,-20 -2288,-260 -3342,-713 -914,-391 -1761,-938 -2495,-1609 -647,-591 -1206,-1277 -1652,-2029 -547,-920 -925,-1940 -1108,-2994 -81,-457 -122,-920 -132,-1384l0 -305c22,-1271 316,-2537 868,-3683 741,-1550 1943,-2874 3413,-3763 806,-490 1692,-850 2612,-1059 602,-139 1219,-211 1836,-223l0 0zm-1839 1905c-762,217 -1487,561 -2138,1013 -785,544 -1460,1243 -1976,2046 -420,654 -735,1375 -925,2128 -316,1245 -295,2574 62,3807 273,946 742,1833 1369,2592 720,-534 1485,-1011 2300,-1387 897,-414 1861,-703 2849,-771 17,-104 33,-207 49,-310 17,-103 33,-205 49,-307 -518,30 -1040,126 -1509,353 340,-262 712,-483 1106,-652 476,-203 983,-344 1500,-375 -249,-485 -500,-969 -748,-1455 -116,128 -236,252 -354,378 -361,381 -717,766 -1081,1145 472,-1096 946,-2190 1420,-3285 4,0 11,-1 15,-2 691,1416 1378,2833 2067,4250 -553,-181 -1125,-307 -1705,-349 32,203 64,407 97,610 982,71 1951,390 2764,949 155,111 314,224 446,362 -107,-65 -217,-125 -329,-180 -1218,-594 -2641,-769 -3962,-459 -789,181 -1536,527 -2207,978 -643,430 -1217,956 -1737,1527 436,360 919,663 1428,909 1065,514 2258,757 3440,708 1158,-46 2304,-375 3309,-954 891,-512 1671,-1214 2272,-2047 647,-893 1086,-1935 1270,-3023 214,-1258 93,-2572 -356,-3766 -448,-1201 -1224,-2277 -2219,-3085 -805,-656 -1752,-1136 -2757,-1395 -1244,-321 -2573,-306 -3809,47z"/>
  </g>
  <path class="fil1" d="M5027 13158c417,-377 842,-745 1263,-1118 102,508 205,1015 307,1523 8,41 20,83 20,126 -167,-360 -342,-716 -512,-1074 -360,180 -719,361 -1078,543z"/>
  <path class="fil1" d="M3987 14955c238,-7 477,-3 715,-5 380,-1 761,-4 1141,-4 -293,514 -588,1028 -882,1541 -12,24 -26,47 -41,68 117,-422 236,-845 354,-1267 -429,-112 -858,-222 -1287,-333z"/>
  <path class="fil1" d="M7438 15108c400,134 800,265 1200,401 -299,-23 -598,-46 -897,-66 -15,298 -33,597 -48,895 -91,-408 -169,-820 -255,-1230z"/>
  <path class="fil1" d="M10497 14556c248,486 499,970 748,1455 -517,31 -1024,172 -1500,375 -394,169 -766,390 -1106,652 469,-227 991,-323 1509,-353 0,0 329,-32 711,8 580,42 1152,168 1705,349 -689,-1417 -1376,-2834 -2067,-4250l-15 2c-474,1095 -948,2189 -1420,3285 364,-379 720,-764 1081,-1145 118,-126 238,-250 354,-378z"/>
  <path class="fil2" d="M10099 16995c98,22 453,88 808,0 -16,-101 -32,-201 -48,-302 -382,-40 -711,-8 -711,-8l-49 307 0 3z"/>
 </g>
</svg>
