<?xml version="1.0" encoding="UTF-8"?>
<!DOCTYPE svg PUBLIC "-//W3C//DTD SVG 1.1//EN" "http://www.w3.org/Graphics/SVG/1.1/DTD/svg11.dtd">
<!-- Creator: CorelDRAW X8 -->
<svg xmlns="http://www.w3.org/2000/svg" xml:space="preserve" width="2008px" height="2008px" version="1.1" style="shape-rendering:geometricPrecision; text-rendering:geometricPrecision; image-rendering:optimizeQuality; fill-rule:evenodd; clip-rule:evenodd"
viewBox="0 0 2008 2008"
 xmlns:xlink="http://www.w3.org/1999/xlink">
 <defs>
  <style type="text/css">
   <![CDATA[
    .fil1 {fill:none}
    .fil0 {fill:#304FFE}
   ]]>
  </style>
 </defs>
 <g id="Слой_x0020_1">
  <metadata id="CorelCorpID_0Corel-Layer"/>
  <path class="fil0" d="M996 0c-554,0 -1004,450 -1004,1004 0,554 450,1004 1004,1004 555,0 1004,-450 1004,-1004 0,-554 -449,-1004 -1004,-1004zm0 301c167,0 302,135 302,301 0,167 -135,301 -302,301 -166,0 -301,-134 -301,-301 0,-166 135,-301 301,-301zm0 1426c-251,0 -473,-129 -602,-324 3,-199 402,-309 602,-309 200,0 600,110 603,309 -130,195 -352,324 -603,324z"/>
  <polygon class="fil1" points="929,929 1079,929 1079,1079 929,1079 "/>
 </g>
</svg>
